<svg xmlns="http://www.w3.org/2000/svg" xmlns:xlink="http://www.w3.org/1999/xlink" width="540" height="255.39000000000001"><rect width="540" height="255.39000000000001" rx="5" ry="5" class="a"></rect><svg y="0%" x="0%"><circle cx="20" cy="20" r="6" class="b"></circle><circle cx="40" cy="20" r="6" class="c"></circle><circle cx="60" cy="20" r="6" class="d"></circle></svg><svg height="195.39000000000001" viewBox="0 0 50 19.539" width="500" x="15" xmlns="http://www.w3.org/2000/svg" xmlns:xlink="http://www.w3.org/1999/xlink" y="50"><style>.a{fill:rgb(40,45,53)}.b{fill:#ff5f58}.c{fill:#ffbd2e}.d{fill:#18c132}.e{font-family:'Fira Code',Monaco,Consolas,Menlo,'Bitstream Vera Sans Mono','Powerline Symbols',monospace}.f{fill:rgb(185,192,203);white-space:pre}.g{fill:rgb(232,131,136);white-space:pre}.h{fill:rgb(113,190,242);white-space:pre}.i{fill:rgb(219,171,121);white-space:pre}.j{fill:rgb(168,204,140);white-space:pre}.k{fill:rgb(210,144,228);white-space:pre}.l{fill:rgb(102,194,205);white-space:pre}.m{fill:rgb(185,191,202);white-space:pre}.n{fill:transparent}.o{fill:rgb(111,118,131)}.q{animation-duration:8.97842884063721s;animation-iteration-count:infinite;animation-name:p;animation-timing-function:steps(1,end)}@keyframes p{0%{transform:translateX(-0px)}0%{transform:translateX(-50px)}0%{transform:translateX(-100px)}0%{transform:translateX(-150px)}0.5%{transform:translateX(-200px)}0.9%{transform:translateX(-250px)}1.7%{transform:translateX(-300px)}2.5%{transform:translateX(-350px)}3%{transform:translateX(-400px)}3.3%{transform:translateX(-450px)}4.1%{transform:translateX(-500px)}4.4%{transform:translateX(-550px)}4.7%{transform:translateX(-600px)}5.1%{transform:translateX(-650px)}5.6%{transform:translateX(-700px)}6.3%{transform:translateX(-750px)}7.2%{transform:translateX(-800px)}7.5%{transform:translateX(-850px)}8.2%{transform:translateX(-900px)}8.9%{transform:translateX(-950px)}9.6%{transform:translateX(-1000px)}10.1%{transform:translateX(-1050px)}10.7%{transform:translateX(-1100px)}11.2%{transform:translateX(-1150px)}11.8%{transform:translateX(-1200px)}12.1%{transform:translateX(-1250px)}12.5%{transform:translateX(-1300px)}13.3%{transform:translateX(-1350px)}14.1%{transform:translateX(-1400px)}14.7%{transform:translateX(-1450px)}15.4%{transform:translateX(-1500px)}15.9%{transform:translateX(-1550px)}16.5%{transform:translateX(-1600px)}16.7%{transform:translateX(-1650px)}17.4%{transform:translateX(-1700px)}18.1%{transform:translateX(-1750px)}18.9%{transform:translateX(-1800px)}19.5%{transform:translateX(-1850px)}20%{transform:translateX(-1900px)}20.6%{transform:translateX(-1950px)}21%{transform:translateX(-2000px)}21.7%{transform:translateX(-2050px)}21.7%{transform:translateX(-2100px)}22.5%{transform:translateX(-2150px)}22.9%{transform:translateX(-2200px)}23.6%{transform:translateX(-2250px)}24.3%{transform:translateX(-2300px)}24.9%{transform:translateX(-2350px)}25.5%{transform:translateX(-2400px)}26.3%{transform:translateX(-2450px)}26.7%{transform:translateX(-2500px)}27.2%{transform:translateX(-2550px)}27.8%{transform:translateX(-2600px)}28.2%{transform:translateX(-2650px)}28.6%{transform:translateX(-2700px)}29.3%{transform:translateX(-2750px)}30%{transform:translateX(-2800px)}30.3%{transform:translateX(-2850px)}30.8%{transform:translateX(-2900px)}31.5%{transform:translateX(-2950px)}32.1%{transform:translateX(-3000px)}32.7%{transform:translateX(-3050px)}33.1%{transform:translateX(-3100px)}33.9%{transform:translateX(-3150px)}34.4%{transform:translateX(-3200px)}35.2%{transform:translateX(-3250px)}35.6%{transform:translateX(-3300px)}35.9%{transform:translateX(-3350px)}36.6%{transform:translateX(-3400px)}37.2%{transform:translateX(-3450px)}37.9%{transform:translateX(-3500px)}43.1%{transform:translateX(-3550px)}43.1%{transform:translateX(-3600px)}100%{transform:translateX(-3650px)}}</style><g font-family="&#x27;Fira Code&#x27;,Monaco,Consolas,Menlo,&#x27;Bitstream Vera Sans Mono&#x27;,&#x27;Powerline Symbols&#x27;,monospace" font-size="1.67" class="e"><defs><symbol id="1"><text x="0" y="1.67" class="f">&gt;</text></symbol><symbol id="2"><text x="0" y="1.67" class="f">&gt;</text><text x="2.004" y="1.67" class="f">#</text></symbol><symbol id="3"><text x="0" y="1.67" class="f">&gt;</text><text x="2.004" y="1.67" class="f">#</text><text x="4.008" y="1.67" class="f">I&#x27;m</text></symbol><symbol id="4"><text x="0" y="1.67" class="f">&gt;</text><text x="2.004" y="1.67" class="f">#</text><text x="4.008" y="1.67" class="f">I&#x27;m</text><text x="8.016" y="1.67" class="f">the</text></symbol><symbol id="5"><text x="0" y="1.67" class="f">&gt;</text><text x="2.004" y="1.67" class="f">#</text><text x="4.008" y="1.67" class="f">I&#x27;m</text><text x="8.016" y="1.67" class="f">the</text><text x="12.024" y="1.67" class="f">tidyverse</text></symbol><symbol id="6"><text x="0" y="1.67" class="f">&gt;</text><text x="2.004" y="1.67" class="f">#</text><text x="4.008" y="1.67" class="f">I&#x27;m</text><text x="8.016" y="1.67" class="f">the</text><text x="12.024" y="1.67" class="f">tidyverse</text><text x="22.043999999999997" y="1.67" class="f">developer</text></symbol><symbol id="7"><text x="0" y="1.67" class="f">&gt;</text><text x="2.004" y="1.67" class="f">#</text><text x="4.008" y="1.67" class="f">I&#x27;m</text><text x="8.016" y="1.67" class="f">the</text><text x="12.024" y="1.67" class="f">tidyverse</text><text x="22.043999999999997" y="1.67" class="f">developer</text><text x="32.064" y="1.67" class="f">advocate</text></symbol><symbol id="8"><text x="0" y="1.67" class="f">&gt;</text><text x="2.004" y="1.67" class="f">tidyverse::tidyverse_logo()</text></symbol><symbol id="9"><text x="0" y="1.67" class="g">⬢</text><text x="2.004" y="1.67" class="h">__</text><text x="6.012" y="1.67" class="h">_</text><text x="11.021999999999998" y="1.67" class="h">__</text><text x="16.032" y="1.67" class="i">.</text><text x="21.041999999999998" y="1.67" class="j">⬡</text><text x="33.065999999999995" y="1.67" class="k">⬢</text><text x="36.071999999999996" y="1.67" class="l">.</text></symbol><symbol id="10"><text x="1.002" y="1.67" class="h">/</text><text x="3.006" y="1.67" class="h">/_(_)__/</text><text x="12.024" y="1.67" class="h">/_</text><text x="15.029999999999998" y="1.67" class="h">___</text><text x="20.04" y="1.67" class="h">_____</text><text x="26.052" y="1.67" class="h">_______</text><text x="34.068" y="1.67" class="h">___</text></symbol><symbol id="11"><text x="0" y="1.67" class="h">/</text><text x="2.004" y="1.67" class="h">__/</text><text x="6.012" y="1.67" class="h">/</text><text x="8.016" y="1.67" class="h">_</text><text x="11.021999999999998" y="1.67" class="h">/</text><text x="13.026" y="1.67" class="h">//</text><text x="16.032" y="1.67" class="h">/</text><text x="18.035999999999998" y="1.67" class="h">|/</text><text x="21.041999999999998" y="1.67" class="h">/</text><text x="23.045999999999996" y="1.67" class="h">-_)</text><text x="27.054" y="1.67" class="h">__(_-&lt;/</text><text x="35.06999999999999" y="1.67" class="h">-_)</text></symbol><symbol id="12"><text x="0" y="1.67" class="h">\__/_/\_,_/\_,</text><text x="15.029999999999998" y="1.67" class="h">/|___/\__/_/</text><text x="28.055999999999997" y="1.67" class="h">/___/\__/</text></symbol><symbol id="13"><text x="5.01" y="1.67" class="i">⬢</text><text x="8.016" y="1.67" class="j">.</text><text x="10.02" y="1.67" class="h">/___/</text><text x="21.041999999999998" y="1.67" class="m">⬡</text><text x="28.055999999999997" y="1.67" class="k">.</text><text x="36.071999999999996" y="1.67" class="l">⬢</text></symbol><symbol id="a"><rect height="10" width="50" x="0" y="0" class="n"></rect></symbol><symbol id="b"><rect height="2.171" width="1.1022" class="o"></rect></symbol></defs><rect height="19.539" width="50" class="a"></rect><g class="q"><svg x="0" y="0" width="3700"><svg x="0"><use xlink:href="#a"></use><use xlink:href="#b" x="-0.0040000000000000036" y="0"></use></svg><svg x="50"><use xlink:href="#a"></use><use xlink:href="#b" x="-0.0040000000000000036" y="0"></use></svg><svg x="100"><use xlink:href="#a"></use><use xlink:href="#b" x="1.996" y="0"></use><use xlink:href="#1" y="0"></use></svg><svg x="150"><use xlink:href="#a"></use><use xlink:href="#b" x="2.996" y="0"></use><use xlink:href="#2" y="0"></use></svg><svg x="200"><use xlink:href="#a"></use><use xlink:href="#b" x="3.996" y="0"></use><use xlink:href="#2" y="0"></use></svg><svg x="250"><use xlink:href="#a"></use><use xlink:href="#b" x="4.996" y="0"></use><text x="0" y="1.67" class="f">&gt;</text><text x="2.004" y="1.67" class="f">#</text><text x="4.008" y="1.67" class="f">I</text></svg><svg x="300"><use xlink:href="#a"></use><use xlink:href="#b" x="5.996" y="0"></use><text x="0" y="1.67" class="f">&gt;</text><text x="2.004" y="1.67" class="f">#</text><text x="4.008" y="1.67" class="f">I&#x27;</text></svg><svg x="350"><use xlink:href="#a"></use><use xlink:href="#b" x="6.996" y="0"></use><use xlink:href="#3" y="0"></use></svg><svg x="400"><use xlink:href="#a"></use><use xlink:href="#b" x="7.996" y="0"></use><use xlink:href="#3" y="0"></use></svg><svg x="450"><use xlink:href="#a"></use><use xlink:href="#b" x="8.996" y="0"></use><text x="0" y="1.67" class="f">&gt;</text><text x="2.004" y="1.67" class="f">#</text><text x="4.008" y="1.67" class="f">I&#x27;m</text><text x="8.016" y="1.67" class="f">t</text></svg><svg x="500"><use xlink:href="#a"></use><use xlink:href="#b" x="9.996" y="0"></use><text x="0" y="1.67" class="f">&gt;</text><text x="2.004" y="1.67" class="f">#</text><text x="4.008" y="1.67" class="f">I&#x27;m</text><text x="8.016" y="1.67" class="f">th</text></svg><svg x="550"><use xlink:href="#a"></use><use xlink:href="#b" x="10.996" y="0"></use><use xlink:href="#4" y="0"></use></svg><svg x="600"><use xlink:href="#a"></use><use xlink:href="#b" x="11.996" y="0"></use><use xlink:href="#4" y="0"></use></svg><svg x="650"><use xlink:href="#a"></use><use xlink:href="#b" x="12.996" y="0"></use><text x="0" y="1.67" class="f">&gt;</text><text x="2.004" y="1.67" class="f">#</text><text x="4.008" y="1.67" class="f">I&#x27;m</text><text x="8.016" y="1.67" class="f">the</text><text x="12.024" y="1.67" class="f">t</text></svg><svg x="700"><use xlink:href="#a"></use><use xlink:href="#b" x="13.996" y="0"></use><text x="0" y="1.67" class="f">&gt;</text><text x="2.004" y="1.67" class="f">#</text><text x="4.008" y="1.67" class="f">I&#x27;m</text><text x="8.016" y="1.67" class="f">the</text><text x="12.024" y="1.67" class="f">ti</text></svg><svg x="750"><use xlink:href="#a"></use><use xlink:href="#b" x="14.996" y="0"></use><text x="0" y="1.67" class="f">&gt;</text><text x="2.004" y="1.67" class="f">#</text><text x="4.008" y="1.67" class="f">I&#x27;m</text><text x="8.016" y="1.67" class="f">the</text><text x="12.024" y="1.67" class="f">tid</text></svg><svg x="800"><use xlink:href="#a"></use><use xlink:href="#b" x="15.996" y="0"></use><text x="0" y="1.67" class="f">&gt;</text><text x="2.004" y="1.67" class="f">#</text><text x="4.008" y="1.67" class="f">I&#x27;m</text><text x="8.016" y="1.67" class="f">the</text><text x="12.024" y="1.67" class="f">tidy</text></svg><svg x="850"><use xlink:href="#a"></use><use xlink:href="#b" x="16.996" y="0"></use><text x="0" y="1.67" class="f">&gt;</text><text x="2.004" y="1.67" class="f">#</text><text x="4.008" y="1.67" class="f">I&#x27;m</text><text x="8.016" y="1.67" class="f">the</text><text x="12.024" y="1.67" class="f">tidyv</text></svg><svg x="900"><use xlink:href="#a"></use><use xlink:href="#b" x="17.996" y="0"></use><text x="0" y="1.67" class="f">&gt;</text><text x="2.004" y="1.67" class="f">#</text><text x="4.008" y="1.67" class="f">I&#x27;m</text><text x="8.016" y="1.67" class="f">the</text><text x="12.024" y="1.67" class="f">tidyve</text></svg><svg x="950"><use xlink:href="#a"></use><use xlink:href="#b" x="18.996" y="0"></use><text x="0" y="1.67" class="f">&gt;</text><text x="2.004" y="1.67" class="f">#</text><text x="4.008" y="1.67" class="f">I&#x27;m</text><text x="8.016" y="1.67" class="f">the</text><text x="12.024" y="1.67" class="f">tidyver</text></svg><svg x="1000"><use xlink:href="#a"></use><use xlink:href="#b" x="19.996" y="0"></use><text x="0" y="1.67" class="f">&gt;</text><text x="2.004" y="1.67" class="f">#</text><text x="4.008" y="1.67" class="f">I&#x27;m</text><text x="8.016" y="1.67" class="f">the</text><text x="12.024" y="1.67" class="f">tidyvers</text></svg><svg x="1050"><use xlink:href="#a"></use><use xlink:href="#b" x="20.996" y="0"></use><use xlink:href="#5" y="0"></use></svg><svg x="1100"><use xlink:href="#a"></use><use xlink:href="#b" x="21.996" y="0"></use><use xlink:href="#5" y="0"></use></svg><svg x="1150"><use xlink:href="#a"></use><use xlink:href="#b" x="22.996" y="0"></use><text x="0" y="1.67" class="f">&gt;</text><text x="2.004" y="1.67" class="f">#</text><text x="4.008" y="1.67" class="f">I&#x27;m</text><text x="8.016" y="1.67" class="f">the</text><text x="12.024" y="1.67" class="f">tidyverse</text><text x="22.043999999999997" y="1.67" class="f">d</text></svg><svg x="1200"><use xlink:href="#a"></use><use xlink:href="#b" x="23.996" y="0"></use><text x="0" y="1.67" class="f">&gt;</text><text x="2.004" y="1.67" class="f">#</text><text x="4.008" y="1.67" class="f">I&#x27;m</text><text x="8.016" y="1.67" class="f">the</text><text x="12.024" y="1.67" class="f">tidyverse</text><text x="22.043999999999997" y="1.67" class="f">de</text></svg><svg x="1250"><use xlink:href="#a"></use><use xlink:href="#b" x="24.996" y="0"></use><text x="0" y="1.67" class="f">&gt;</text><text x="2.004" y="1.67" class="f">#</text><text x="4.008" y="1.67" class="f">I&#x27;m</text><text x="8.016" y="1.67" class="f">the</text><text x="12.024" y="1.67" class="f">tidyverse</text><text x="22.043999999999997" y="1.67" class="f">dev</text></svg><svg x="1300"><use xlink:href="#a"></use><use xlink:href="#b" x="25.996" y="0"></use><text x="0" y="1.67" class="f">&gt;</text><text x="2.004" y="1.67" class="f">#</text><text x="4.008" y="1.67" class="f">I&#x27;m</text><text x="8.016" y="1.67" class="f">the</text><text x="12.024" y="1.67" class="f">tidyverse</text><text x="22.043999999999997" y="1.67" class="f">deve</text></svg><svg x="1350"><use xlink:href="#a"></use><use xlink:href="#b" x="26.996" y="0"></use><text x="0" y="1.67" class="f">&gt;</text><text x="2.004" y="1.67" class="f">#</text><text x="4.008" y="1.67" class="f">I&#x27;m</text><text x="8.016" y="1.67" class="f">the</text><text x="12.024" y="1.67" class="f">tidyverse</text><text x="22.043999999999997" y="1.67" class="f">devel</text></svg><svg x="1400"><use xlink:href="#a"></use><use xlink:href="#b" x="27.996" y="0"></use><text x="0" y="1.67" class="f">&gt;</text><text x="2.004" y="1.67" class="f">#</text><text x="4.008" y="1.67" class="f">I&#x27;m</text><text x="8.016" y="1.67" class="f">the</text><text x="12.024" y="1.67" class="f">tidyverse</text><text x="22.043999999999997" y="1.67" class="f">develo</text></svg><svg x="1450"><use xlink:href="#a"></use><use xlink:href="#b" x="28.996" y="0"></use><text x="0" y="1.67" class="f">&gt;</text><text x="2.004" y="1.67" class="f">#</text><text x="4.008" y="1.67" class="f">I&#x27;m</text><text x="8.016" y="1.67" class="f">the</text><text x="12.024" y="1.67" class="f">tidyverse</text><text x="22.043999999999997" y="1.67" class="f">develop</text></svg><svg x="1500"><use xlink:href="#a"></use><use xlink:href="#b" x="29.996" y="0"></use><text x="0" y="1.67" class="f">&gt;</text><text x="2.004" y="1.67" class="f">#</text><text x="4.008" y="1.67" class="f">I&#x27;m</text><text x="8.016" y="1.67" class="f">the</text><text x="12.024" y="1.67" class="f">tidyverse</text><text x="22.043999999999997" y="1.67" class="f">develope</text></svg><svg x="1550"><use xlink:href="#a"></use><use xlink:href="#b" x="30.996" y="0"></use><use xlink:href="#6" y="0"></use></svg><svg x="1600"><use xlink:href="#a"></use><use xlink:href="#b" x="31.996" y="0"></use><use xlink:href="#6" y="0"></use></svg><svg x="1650"><use xlink:href="#a"></use><use xlink:href="#b" x="32.996" y="0"></use><text x="0" y="1.67" class="f">&gt;</text><text x="2.004" y="1.67" class="f">#</text><text x="4.008" y="1.67" class="f">I&#x27;m</text><text x="8.016" y="1.67" class="f">the</text><text x="12.024" y="1.67" class="f">tidyverse</text><text x="22.043999999999997" y="1.67" class="f">developer</text><text x="32.064" y="1.67" class="f">a</text></svg><svg x="1700"><use xlink:href="#a"></use><use xlink:href="#b" x="33.996" y="0"></use><text x="0" y="1.67" class="f">&gt;</text><text x="2.004" y="1.67" class="f">#</text><text x="4.008" y="1.67" class="f">I&#x27;m</text><text x="8.016" y="1.67" class="f">the</text><text x="12.024" y="1.67" class="f">tidyverse</text><text x="22.043999999999997" y="1.67" class="f">developer</text><text x="32.064" y="1.67" class="f">ad</text></svg><svg x="1750"><use xlink:href="#a"></use><use xlink:href="#b" x="34.996" y="0"></use><text x="0" y="1.67" class="f">&gt;</text><text x="2.004" y="1.67" class="f">#</text><text x="4.008" y="1.67" class="f">I&#x27;m</text><text x="8.016" y="1.67" class="f">the</text><text x="12.024" y="1.67" class="f">tidyverse</text><text x="22.043999999999997" y="1.67" class="f">developer</text><text x="32.064" y="1.67" class="f">adv</text></svg><svg x="1800"><use xlink:href="#a"></use><use xlink:href="#b" x="35.996" y="0"></use><text x="0" y="1.67" class="f">&gt;</text><text x="2.004" y="1.67" class="f">#</text><text x="4.008" y="1.67" class="f">I&#x27;m</text><text x="8.016" y="1.67" class="f">the</text><text x="12.024" y="1.67" class="f">tidyverse</text><text x="22.043999999999997" y="1.67" class="f">developer</text><text x="32.064" y="1.67" class="f">advo</text></svg><svg x="1850"><use xlink:href="#a"></use><use xlink:href="#b" x="36.996" y="0"></use><text x="0" y="1.67" class="f">&gt;</text><text x="2.004" y="1.67" class="f">#</text><text x="4.008" y="1.67" class="f">I&#x27;m</text><text x="8.016" y="1.67" class="f">the</text><text x="12.024" y="1.67" class="f">tidyverse</text><text x="22.043999999999997" y="1.67" class="f">developer</text><text x="32.064" y="1.67" class="f">advoc</text></svg><svg x="1900"><use xlink:href="#a"></use><use xlink:href="#b" x="37.996" y="0"></use><text x="0" y="1.67" class="f">&gt;</text><text x="2.004" y="1.67" class="f">#</text><text x="4.008" y="1.67" class="f">I&#x27;m</text><text x="8.016" y="1.67" class="f">the</text><text x="12.024" y="1.67" class="f">tidyverse</text><text x="22.043999999999997" y="1.67" class="f">developer</text><text x="32.064" y="1.67" class="f">advoca</text></svg><svg x="1950"><use xlink:href="#a"></use><use xlink:href="#b" x="38.996" y="0"></use><text x="0" y="1.67" class="f">&gt;</text><text x="2.004" y="1.67" class="f">#</text><text x="4.008" y="1.67" class="f">I&#x27;m</text><text x="8.016" y="1.67" class="f">the</text><text x="12.024" y="1.67" class="f">tidyverse</text><text x="22.043999999999997" y="1.67" class="f">developer</text><text x="32.064" y="1.67" class="f">advocat</text></svg><svg x="2000"><use xlink:href="#a"></use><use xlink:href="#b" x="39.996" y="0"></use><use xlink:href="#7" y="0"></use></svg><svg x="2050"><use xlink:href="#a"></use><use xlink:href="#b" x="-0.0040000000000000036" y="2.146"></use><use xlink:href="#7" y="0"></use></svg><svg x="2100"><use xlink:href="#a"></use><use xlink:href="#b" x="1.996" y="2.146"></use><use xlink:href="#7" y="0"></use><use xlink:href="#1" y="2.171"></use></svg><svg x="2150"><use xlink:href="#a"></use><use xlink:href="#b" x="2.996" y="2.146"></use><use xlink:href="#7" y="0"></use><text x="0" y="3.8409999999999997" class="f">&gt;</text><text x="2.004" y="3.8409999999999997" class="f">t</text></svg><svg x="2200"><use xlink:href="#a"></use><use xlink:href="#b" x="3.996" y="2.146"></use><use xlink:href="#7" y="0"></use><text x="0" y="3.8409999999999997" class="f">&gt;</text><text x="2.004" y="3.8409999999999997" class="f">ti</text></svg><svg x="2250"><use xlink:href="#a"></use><use xlink:href="#b" x="4.996" y="2.146"></use><use xlink:href="#7" y="0"></use><text x="0" y="3.8409999999999997" class="f">&gt;</text><text x="2.004" y="3.8409999999999997" class="f">tid</text></svg><svg x="2300"><use xlink:href="#a"></use><use xlink:href="#b" x="5.996" y="2.146"></use><use xlink:href="#7" y="0"></use><text x="0" y="3.8409999999999997" class="f">&gt;</text><text x="2.004" y="3.8409999999999997" class="f">tidy</text></svg><svg x="2350"><use xlink:href="#a"></use><use xlink:href="#b" x="6.996" y="2.146"></use><use xlink:href="#7" y="0"></use><text x="0" y="3.8409999999999997" class="f">&gt;</text><text x="2.004" y="3.8409999999999997" class="f">tidyv</text></svg><svg x="2400"><use xlink:href="#a"></use><use xlink:href="#b" x="7.996" y="2.146"></use><use xlink:href="#7" y="0"></use><text x="0" y="3.8409999999999997" class="f">&gt;</text><text x="2.004" y="3.8409999999999997" class="f">tidyve</text></svg><svg x="2450"><use xlink:href="#a"></use><use xlink:href="#b" x="8.996" y="2.146"></use><use xlink:href="#7" y="0"></use><text x="0" y="3.8409999999999997" class="f">&gt;</text><text x="2.004" y="3.8409999999999997" class="f">tidyver</text></svg><svg x="2500"><use xlink:href="#a"></use><use xlink:href="#b" x="9.996" y="2.146"></use><use xlink:href="#7" y="0"></use><text x="0" y="3.8409999999999997" class="f">&gt;</text><text x="2.004" y="3.8409999999999997" class="f">tidyvers</text></svg><svg x="2550"><use xlink:href="#a"></use><use xlink:href="#b" x="10.996" y="2.146"></use><use xlink:href="#7" y="0"></use><text x="0" y="3.8409999999999997" class="f">&gt;</text><text x="2.004" y="3.8409999999999997" class="f">tidyverse</text></svg><svg x="2600"><use xlink:href="#a"></use><use xlink:href="#b" x="11.996" y="2.146"></use><use xlink:href="#7" y="0"></use><text x="0" y="3.8409999999999997" class="f">&gt;</text><text x="2.004" y="3.8409999999999997" class="f">tidyverse:</text></svg><svg x="2650"><use xlink:href="#a"></use><use xlink:href="#b" x="12.996" y="2.146"></use><use xlink:href="#7" y="0"></use><text x="0" y="3.8409999999999997" class="f">&gt;</text><text x="2.004" y="3.8409999999999997" class="f">tidyverse::</text></svg><svg x="2700"><use xlink:href="#a"></use><use xlink:href="#b" x="13.996" y="2.146"></use><use xlink:href="#7" y="0"></use><text x="0" y="3.8409999999999997" class="f">&gt;</text><text x="2.004" y="3.8409999999999997" class="f">tidyverse::t</text></svg><svg x="2750"><use xlink:href="#a"></use><use xlink:href="#b" x="14.996" y="2.146"></use><use xlink:href="#7" y="0"></use><text x="0" y="3.8409999999999997" class="f">&gt;</text><text x="2.004" y="3.8409999999999997" class="f">tidyverse::ti</text></svg><svg x="2800"><use xlink:href="#a"></use><use xlink:href="#b" x="15.996" y="2.146"></use><use xlink:href="#7" y="0"></use><text x="0" y="3.8409999999999997" class="f">&gt;</text><text x="2.004" y="3.8409999999999997" class="f">tidyverse::tid</text></svg><svg x="2850"><use xlink:href="#a"></use><use xlink:href="#b" x="16.996" y="2.146"></use><use xlink:href="#7" y="0"></use><text x="0" y="3.8409999999999997" class="f">&gt;</text><text x="2.004" y="3.8409999999999997" class="f">tidyverse::tidy</text></svg><svg x="2900"><use xlink:href="#a"></use><use xlink:href="#b" x="17.996" y="2.146"></use><use xlink:href="#7" y="0"></use><text x="0" y="3.8409999999999997" class="f">&gt;</text><text x="2.004" y="3.8409999999999997" class="f">tidyverse::tidyv</text></svg><svg x="2950"><use xlink:href="#a"></use><use xlink:href="#b" x="18.996" y="2.146"></use><use xlink:href="#7" y="0"></use><text x="0" y="3.8409999999999997" class="f">&gt;</text><text x="2.004" y="3.8409999999999997" class="f">tidyverse::tidyve</text></svg><svg x="3000"><use xlink:href="#a"></use><use xlink:href="#b" x="19.996" y="2.146"></use><use xlink:href="#7" y="0"></use><text x="0" y="3.8409999999999997" class="f">&gt;</text><text x="2.004" y="3.8409999999999997" class="f">tidyverse::tidyver</text></svg><svg x="3050"><use xlink:href="#a"></use><use xlink:href="#b" x="20.996" y="2.146"></use><use xlink:href="#7" y="0"></use><text x="0" y="3.8409999999999997" class="f">&gt;</text><text x="2.004" y="3.8409999999999997" class="f">tidyverse::tidyvers</text></svg><svg x="3100"><use xlink:href="#a"></use><use xlink:href="#b" x="21.996" y="2.146"></use><use xlink:href="#7" y="0"></use><text x="0" y="3.8409999999999997" class="f">&gt;</text><text x="2.004" y="3.8409999999999997" class="f">tidyverse::tidyverse</text></svg><svg x="3150"><use xlink:href="#a"></use><use xlink:href="#b" x="22.996" y="2.146"></use><use xlink:href="#7" y="0"></use><text x="0" y="3.8409999999999997" class="f">&gt;</text><text x="2.004" y="3.8409999999999997" class="f">tidyverse::tidyverse_</text></svg><svg x="3200"><use xlink:href="#a"></use><use xlink:href="#b" x="23.996" y="2.146"></use><use xlink:href="#7" y="0"></use><text x="0" y="3.8409999999999997" class="f">&gt;</text><text x="2.004" y="3.8409999999999997" class="f">tidyverse::tidyverse_l</text></svg><svg x="3250"><use xlink:href="#a"></use><use xlink:href="#b" x="24.996" y="2.146"></use><use xlink:href="#7" y="0"></use><text x="0" y="3.8409999999999997" class="f">&gt;</text><text x="2.004" y="3.8409999999999997" class="f">tidyverse::tidyverse_lo</text></svg><svg x="3300"><use xlink:href="#a"></use><use xlink:href="#b" x="25.996" y="2.146"></use><use xlink:href="#7" y="0"></use><text x="0" y="3.8409999999999997" class="f">&gt;</text><text x="2.004" y="3.8409999999999997" class="f">tidyverse::tidyverse_log</text></svg><svg x="3350"><use xlink:href="#a"></use><use xlink:href="#b" x="26.996" y="2.146"></use><use xlink:href="#7" y="0"></use><text x="0" y="3.8409999999999997" class="f">&gt;</text><text x="2.004" y="3.8409999999999997" class="f">tidyverse::tidyverse_logo</text></svg><svg x="3400"><use xlink:href="#a"></use><use xlink:href="#b" x="27.996" y="2.146"></use><use xlink:href="#7" y="0"></use><text x="0" y="3.8409999999999997" class="f">&gt;</text><text x="2.004" y="3.8409999999999997" class="f">tidyverse::tidyverse_logo(</text></svg><svg x="3450"><use xlink:href="#a"></use><use xlink:href="#b" x="28.996" y="2.146"></use><use xlink:href="#7" y="0"></use><use xlink:href="#8" y="2.171"></use></svg><svg x="3500"><use xlink:href="#a"></use><use xlink:href="#b" x="-0.0040000000000000036" y="4.317"></use><use xlink:href="#7" y="0"></use><use xlink:href="#8" y="2.171"></use></svg><svg x="3550"><use xlink:href="#a"></use><use xlink:href="#b" x="-0.0040000000000000036" y="15.171999999999999"></use><use xlink:href="#7" y="0"></use><use xlink:href="#8" y="2.171"></use><use xlink:href="#9" y="4.342"></use><use xlink:href="#10" y="6.513"></use><use xlink:href="#11" y="8.684"></use><use xlink:href="#12" y="10.855"></use><use xlink:href="#13" y="13.026"></use></svg><svg x="3600"><use xlink:href="#a"></use><use xlink:href="#b" x="1.996" y="15.171999999999999"></use><use xlink:href="#7" y="0"></use><use xlink:href="#8" y="2.171"></use><use xlink:href="#9" y="4.342"></use><use xlink:href="#10" y="6.513"></use><use xlink:href="#11" y="8.684"></use><use xlink:href="#12" y="10.855"></use><use xlink:href="#13" y="13.026"></use><use xlink:href="#1" y="15.197"></use></svg><svg x="3650"><use xlink:href="#a"></use><use xlink:href="#b" x="1.996" y="15.171999999999999"></use><use xlink:href="#7" y="0"></use><use xlink:href="#8" y="2.171"></use><use xlink:href="#9" y="4.342"></use><use xlink:href="#10" y="6.513"></use><use xlink:href="#11" y="8.684"></use><use xlink:href="#12" y="10.855"></use><use xlink:href="#13" y="13.026"></use><use xlink:href="#1" y="15.197"></use></svg></svg></g></g></svg></svg>